<svg xmlns="http://www.w3.org/2000/svg" viewBox="0 0 1024 1024">
  <path fill="#E52B00" fill-rule="evenodd" d="M 464 66 L 417 74 L 382 84 L 331 104 L 300 120 L 254 150 L 225 174 L 190 209 L 166 238 L 148 264 L 123 309 L 106 349 L 94 388 L 88 414 L 82 458 L 81 515 L 84 549 L 91 589 L 100 622 L 116 665 L 136 705 L 156 737 L 189 779 L 220 811 L 246 833 L 270 851 L 272 851 L 281 858 L 308 874 L 352 895 L 405 913 L 455 923 L 486 926 L 543 926 L 574 923 L 632 911 L 663 901 L 697 887 L 736 866 L 761 850 L 793 826 L 831 790 L 857 760 L 874 737 L 900 694 L 921 648 L 933 612 L 941 579 L 947 540 L 949 513 L 949 475 L 947 448 L 940 405 L 929 364 L 916 329 L 893 283 L 875 254 L 852 223 L 807 176 L 785 157 L 753 134 L 715 112 L 676 94 L 631 79 L 597 71 L 554 65 L 488 64 Z 187 600 L 190 597 L 219 600 L 249 600 L 291 597 L 328 591 L 354 585 L 372 579 L 396 569 L 422 554 L 448 527 L 458 513 L 471 489 L 473 491 L 473 617 L 475 619 L 496 622 L 868 623 L 869 625 L 851 663 L 820 711 L 798 738 L 762 774 L 745 788 L 703 817 L 658 840 L 612 856 L 587 862 L 552 867 L 547 862 L 531 838 L 469 760 L 468 757 L 421 700 L 404 674 L 392 671 L 320 668 L 292 664 L 260 656 L 240 648 L 212 630 L 195 614 L 187 603  Z  268 260 L 285 267 L 300 281 L 309 294 L 320 320 L 326 346 L 330 379 L 330 436 L 327 463 L 320 496 L 314 513 L 306 530 L 295 546 L 279 562 L 256 576 L 237 581 L 215 581 L 200 577 L 190 572 L 179 564 L 166 549 L 156 531 L 149 508 L 146 489 L 146 454 L 149 428 L 159 384 L 165 365 L 176 338 L 187 316 L 201 294 L 213 280 L 231 267 L 250 260  Z  611 133 L 654 149 L 684 164 L 728 192 L 753 212 L 788 246 L 815 279 L 834 307 L 856 347 L 852 357 L 839 370 L 816 387 L 791 401 L 788 404 L 788 428 L 784 476 L 776 507 L 771 519 L 765 528 L 751 543 L 737 553 L 725 559 L 707 565 L 674 569 L 626 569 L 609 567 L 609 135  Z  469 130 L 472 299 L 470 309 L 467 308 L 463 301 L 450 286 L 436 274 L 411 258 L 388 248 L 356 239 L 326 234 L 282 230 L 262 230 L 259 228 L 259 225 L 273 211 L 292 196 L 327 173 L 352 160 L 395 143 L 423 135 L 460 127 L 467 127  Z "/>
</svg>